<?xml version="1.0" standalone="no"?><!DOCTYPE svg PUBLIC "-//W3C//DTD SVG 1.1//EN" "http://www.w3.org/Graphics/SVG/1.1/DTD/svg11.dtd"><svg t="1751506289967" class="icon" viewBox="0 0 1024 1024" version="1.1" xmlns="http://www.w3.org/2000/svg" p-id="6255" width="32" height="32" xmlns:xlink="http://www.w3.org/1999/xlink"><path d="M257.024 856.63744a40.96 40.96 0 0 1-40.96-40.96V377.77408H165.0688a40.96 40.96 0 0 1-40.67328-36.16768l-0.28672-4.75136V173.58848a40.96 40.96 0 0 1 40.96-40.96h163.4304a40.96 40.96 0 0 1 40.96 40.96v163.26656a40.96 40.96 0 0 1-40.96 40.96l-50.9952-0.04096v151.79776l164.0448-0.69632v-44.11392a40.96 40.96 0 0 1 36.16768-40.67328l4.79232-0.28672h337.92a40.96 40.96 0 0 1 40.96 40.96v128.8192a40.96 40.96 0 0 1-40.96 40.96h-337.92a40.96 40.96 0 0 1-40.96-40.96v-23.26528l-164.0448 0.73728v204.10368h164.0448v-33.66912a40.96 40.96 0 0 1 36.16768-40.67328l4.79232-0.28672h337.92a40.96 40.96 0 0 1 40.96 40.96v128.8192a40.96 40.96 0 0 1-40.96 40.96h-337.92a40.96 40.96 0 0 1-40.96-40.96v-33.71008H257.024zM799.9488 781.9264h-296.96v87.8592h296.96V781.9264z m0-276.72576h-296.96v87.81824h296.96v-87.81824z m20.48-372.61312a40.96 40.96 0 0 1 40.96 40.96v163.26656a40.96 40.96 0 0 1-40.96 40.96h-337.92a40.96 40.96 0 0 1-40.96-40.96V173.58848a40.96 40.96 0 0 1 40.96-40.96h337.92z m-512.4096 61.44H185.5488v122.2656h122.4704V194.06848z m491.9296 0h-296.96v122.2656h296.96V194.06848z" fill="#000000" p-id="6256"></path></svg>