<?xml version="1.0" standalone="no"?><!DOCTYPE svg PUBLIC "-//W3C//DTD SVG 1.1//EN" "http://www.w3.org/Graphics/SVG/1.1/DTD/svg11.dtd"><svg t="1704246726542" class="icon" viewBox="0 0 1024 1024" version="1.1" xmlns="http://www.w3.org/2000/svg" p-id="1490" xmlns:xlink="http://www.w3.org/1999/xlink" width="200" height="200"><path d="M515.530406 770.231319c4.366448 0 8.812713-0.267083 13.284561-0.800225 42.889833-5.14723 79.310324-35.124985 92.75452-76.437903 1.01205-3.093455-0.452301-6.40078-3.40761-7.760754-2.928702-1.359974-6.469342-0.186242-8.119935 2.586918-0.159636 0.267083-17.198707 27.79095-83.542718 36.752042-9.930163 1.333368-19.594267 2.02717-28.752858 2.02717-46.483684-0.026606-67.196425-17.548678-67.382667-17.709337-2.342348-2.080382-5.910617-2.133593-8.306176-0.106424-2.422166 2.02717-2.981914 5.547343-1.331321 8.241708C440.960037 749.82864 477.273081 770.231319 515.530406 770.231319zM872.252901 359.078145c-0.586354 0-1.118474 0.106424-1.677199 0.106424C831.705416 190.893678 683.175591 65.355497 505.09473 65.355497c-182.979428 0-334.916862 132.473127-368.595916 307.724547-32.745798 5.894244-57.665351 34.671661-57.665351 69.477374l0 139.300626c0 39.045271 31.309076 70.703295 69.965491 70.703295 21.804608 0 41.052998-10.29446 53.858652-26.110681 30.934546 81.82254 93.922113 147.803277 173.627433 182.610014 0.191358-0.415462 1.700735-3.348258 3.514033-5.685489 1.257643-1.620917 2.660596-2.952238 3.868097-2.952238 1.251503 0 2.396583 0.453325 3.381004 1.147126-18.450211-13.735839-85.086887-84.33271-99.516528-182.853561-6.336312-43.366693 26.143427-85.932138 63.975057-92.973508 60.727083-11.308557 121.134895-24.189935 181.861978-35.284621 38.603203-7.04137 64.987107-28.217668 81.120552-63.475683 3.780093-8.241708 9.238408-24.910343 11.741415-48.940642 0.665149-3.573385 3.593851-6.320962 7.348362-6.320962 2.503007 0 4.632507 1.280156 6.043646 3.120061l1.677199-1.039679c23.934109 34.751478 71.403237 111.695918 78.218456 192.827727 7.827269 92.76066 3.460822 156.289556-67.542302 221.285872-0.079818 0.079818-0.186242 0.186242-0.292666 0.267083-0.985444 1.066285-1.570775 2.453888-1.570775 3.973498 0 2.000564 1.065262 3.707438 2.609431 4.747117 0.585331 0.240477 1.171686 0.559748 1.757017 0.800225 0.478907 0.106424 0.931209 0.267083 1.411139 0.267083 0.479931 0 0.905626-0.159636 1.331321-0.267083 1.01205-0.533143 1.969864-1.147126 2.955308-1.680269 71.802326-39.552831 126.884852-105.615433 152.336524-185.066973 10.302647 15.308661 26.436092 26.323529 45.178969 30.163997-30.057573 136.713708-151.990646 222.272339-303.050084 235.261165-9.052167-22.456455-31.335682-38.405705-57.505715-38.405705-34.183544 0-61.898769 27.070542-61.898769 60.435441s27.714202 60.408835 61.898769 60.408835c27.554566 0 50.637284-17.709337 58.650795-42.032302 174.859493-14.21577 315.02993-118.150934 344.289324-279.640931 25.850761-10.80202 44.007283-36.165688 44.007283-65.769936L944.083879 430.42203C944.081833 391.029858 911.920342 359.078145 872.252901 359.078145zM807.744701 399.564231C762.140037 276.026614 643.960451 187.773617 504.935094 187.773617c-138.440026 0-256.192893 87.505983-302.224276 210.243375-2.289136-2.800789-4.978385-5.200442-7.614421-7.627724C221.160006 240.820788 349.882716 127.0977 505.09473 127.0977c154.467047 0 282.789645 112.602567 309.705668 261.131369C812.137755 391.803477 809.68796 395.537522 807.744701 399.564231zM376.292202 809.063743c-0.00307-0.001023-0.005117-0.002047-0.008186-0.00307C376.255363 809.125141 376.25434 809.133328 376.292202 809.063743z" fill="#fff" p-id="1491"></path></svg>