<?xml version="1.0" standalone="no"?><!DOCTYPE svg PUBLIC "-//W3C//DTD SVG 1.1//EN" "http://www.w3.org/Graphics/SVG/1.1/DTD/svg11.dtd"><svg t="1696305484888" class="icon" viewBox="0 0 1024 1024" version="1.1" xmlns="http://www.w3.org/2000/svg" p-id="4748" id="mx_n_1696305484889" width="128" height="128" xmlns:xlink="http://www.w3.org/1999/xlink"><path d="M858 797.4c62.4-75.6 98.4-170.4 102.3-268.3l-207.1 5.8c-4.2 44.7-20.5 86.1-45.8 120.3L858 797.4z m-106.7-322l207.1-5.8c-1.3-14.1-3.4-28.4-6.1-42.2-16.8-88.4-59.5-168.9-123.2-232.7-77.1-77-178.8-123-287.4-130.5v207.5c107.8 13.3 193.4 97.1 209.6 203.7z" p-id="4749"></path><path d="M269.9 512c0-123.7 92.7-225.8 212.4-240.4V64.1c-108.5 7.1-210.4 53.3-287.5 130.4C20 369.3 20 654 194.9 828.9c166.5 166.5 435.4 175.5 612.1 20.5 3.4-2.8 6.7-5.8 10.1-8.9L666.4 698.4c-41.9 34.8-95.9 55.6-154.6 55.6-133.5 0.1-241.9-108.2-241.9-242z" p-id="4750"></path></svg>