<?xml version="1.0" standalone="no"?><!DOCTYPE svg PUBLIC "-//W3C//DTD SVG 1.1//EN" "http://www.w3.org/Graphics/SVG/1.1/DTD/svg11.dtd"><svg t="1722403328949" class="icon" viewBox="0 0 1024 1024" version="1.1" xmlns="http://www.w3.org/2000/svg" p-id="4268" xmlns:xlink="http://www.w3.org/1999/xlink" width="14" height="14"><path d="M494.4 578.9c-12.4 14.6-30.3 21.8-53.6 21.8H412v-184h31c22.9 0 40.4 7.3 52.4 21.9 12 14.6 18.1 35.8 18.1 63.5v14.2c-0.3 27.2-6.6 48.1-19.1 62.6z m-222.5-84.3c8.3-7.4 12.4-18.1 12.4-32.2 0-13.8-4.2-24.8-12.6-33-8.4-8.2-20-12.5-34.7-12.7h-54.5v89.1h53.3c15.8-0.1 27.8-3.8 36.1-11.2zM589 883.8c6.7 15.9 15.2 30.9 24.9 44.9h-412c-62 0-112.2-50-112.2-112V703.5H0V322.3h89.8V31.6H516.1c12.4 0 22.4 10 22.4 22.4s-10 22.4-22.4 22.4H134.6v245.8h628.3v-66.4H583.5V54c0-12.6 10-22.7 22.5-22.9 4.7-0.1 8 0.9 11.5 2.6 2.8 1.3 5.7 3.2 9.2 5.7 5.3 3.8 12.5 9.6 21.7 17.3 15.7 13.2 36.9 32 62.3 55 2.2 1.9 2.2 1.9 4.3 3.9 19.1 17.3 39.2 35.8 59.2 54.3 7 6.5 13.5 12.5 19.3 17.9 3.5 3.2 6 5.6 7.3 6.8 4.7 4.4 7 10.4 7 16.4h0.1V322.3h89.8v229.2c-25-8.5-51.8-13.3-79.7-13.3-66.5 0-126.8 26.3-171.4 68.8v-79h102.7v-35.4H646.5v-75.9h116.4v-35.8H602.2v255.2h18.3c-15.5 20.3-27.9 42.9-36.6 67.4H134.6v113.1c0 37.2 30.1 67.2 67.3 67.2H589zM752.5 211c-2.8-2.6-5.7-5.3-8.8-8.2-19.9-18.4-39.9-36.8-58.8-54-2.1-1.9-2.1-1.9-4.3-3.9-20.6-18.6-38.1-34.2-52.3-46.4V211h124.2zM367.6 636.2h73.5c23 0 43.4-5 61.3-14.9 17.8-9.9 31.6-24.1 41.2-42.4 9.6-18.3 14.5-39.6 14.5-63.8v-12.8c0-23.8-4.8-45-14.4-63.5C534 420.3 520.5 406 503 396c-17.5-10.1-37.5-15.1-60-15.1h-75.4v255.3z m-229.5 0h44.4v-94.8h52.8c29.6 0 52.6-7 69-20.9 16.4-13.9 24.6-33.4 24.6-58.4 0-24.4-8.4-44.1-25.2-58.9-16.8-14.8-39.4-22.3-67.9-22.3h-97.6v255.3zM1024 786.8c0 113.8-92.3 206.1-206.1 206.1s-206.1-92.3-206.1-206.1 92.3-206.1 206.1-206.1S1024 673 1024 786.8z m-58.8 10.4c1.3-3.3 1.1-6.9-0.7-10-0.3-3.5-1.4-6.9-3.1-10-1.6-2.7-3.5-5.1-5.7-7.3L844.2 663.1c-3.2-3.6-7.6-5.9-12.3-6.7-4.5-0.4-9.1 0.5-13 2.7-4.1 1.9-7.5 5.1-9.7 9-2 3.8-3.1 8-3.1 12.3v55.4H696c-6.7 0.5-13 3.4-17.7 8.3-4.9 4.6-7.9 10.9-8.4 17.7v50.8c-1.8 12.6 7 24.3 19.6 26 2.1 0.3 4.3 0.3 6.5 0h110V890c-2.8 10.5 2.6 21.4 12.7 25.4v-0.2c8.5 4 18.5 2.5 25.5-3.7l115.6-106.8c2.2-2.3 4-4.7 5.4-7.5z" fill="" p-id="4269"></path></svg>