<?xml version="1.0" standalone="no"?><!DOCTYPE svg PUBLIC "-//W3C//DTD SVG 1.1//EN" "http://www.w3.org/Graphics/SVG/1.1/DTD/svg11.dtd"><svg t="1696245983574" class="icon" viewBox="0 0 1024 1024" version="1.1" xmlns="http://www.w3.org/2000/svg" p-id="3617" width="16" height="16" xmlns:xlink="http://www.w3.org/1999/xlink"><path d="M313.6 123.733333c-4.266667-4.266667-12.8-4.266667-17.066667 0l-147.2 170.666667c-12.8 14.933333-2.133333 36.266667 14.933334 36.266667h100.266666v524.8c0 14.933333 8.533333 27.733333 21.333334 27.733333h42.666666c12.8 0 21.333333-12.8 21.333334-27.733333V330.666667H448c19.2 0 27.733333-23.466667 14.933333-36.266667l-149.333333-170.666667zM864 800H704l168.533333-183.466667c10.666667-12.8 14.933333-29.866667 8.533334-46.933333-6.4-14.933333-21.333333-25.6-38.4-25.6h-256c-12.8 0-21.333333 8.533333-21.333334 21.333333v42.666667c0 12.8 8.533333 21.333333 21.333334 21.333333H746.666667l-170.666667 185.6c-10.666667 12.8-14.933333 29.866667-8.533333 46.933334 6.4 14.933333 21.333333 25.6 38.4 25.6h256c12.8 0 21.333333-8.533333 21.333333-21.333334v-42.666666c2.133333-12.8-6.4-23.466667-19.2-23.466667zM900.266667 443.733333l-125.866667-298.666666c-6.4-14.933333-21.333333-25.6-38.4-25.6S704 128 695.466667 142.933333l-147.2 302.933334c-4.266667 6.4 2.133333 14.933333 10.666666 14.933333h61.866667c4.266667 0 8.533333-2.133333 8.533333-6.4l21.333334-40.533333h147.2l17.066666 38.4c2.133333 4.266667 6.4 6.4 10.666667 6.4h61.866667c10.666667 0 14.933333-6.4 12.8-14.933334z m-202.666667-113.066666l34.133333-66.133334 29.866667 66.133334h-64z" p-id="3618"></path></svg>