<?xml version="1.0" standalone="no"?><!DOCTYPE svg PUBLIC "-//W3C//DTD SVG 1.1//EN" "http://www.w3.org/Graphics/SVG/1.1/DTD/svg11.dtd"><svg t="1696245990965" class="icon" viewBox="0 0 1024 1024" version="1.1" xmlns="http://www.w3.org/2000/svg" p-id="3855" xmlns:xlink="http://www.w3.org/1999/xlink" width="16" height="16"><path d="M864 800H704l168.533333-183.466667c10.666667-12.8 14.933333-29.866667 8.533334-46.933333-6.4-14.933333-21.333333-25.6-38.4-25.6h-256c-12.8 0-21.333333 8.533333-21.333334 21.333333v42.666667c0 12.8 8.533333 21.333333 21.333334 21.333333H746.666667l-168.533334 183.466667c-10.666667 12.8-14.933333 29.866667-8.533333 46.933333 6.4 14.933333 21.333333 25.6 38.4 25.6h256c12.8 0 21.333333-8.533333 21.333333-21.333333v-42.666667c0-10.666667-8.533333-21.333333-21.333333-21.333333zM900.266667 443.733333l-123.733334-298.666666c-6.4-14.933333-21.333333-25.6-38.4-25.6s-32 8.533333-40.533333 23.466666l-147.2 302.933334c-4.266667 6.4 2.133333 14.933333 10.666667 14.933333h61.866666c4.266667 0 8.533333-2.133333 8.533334-6.4l21.333333-40.533333h147.2l17.066667 38.4c2.133333 4.266667 6.4 6.4 10.666666 6.4h61.866667c8.533333 0 14.933333-6.4 10.666667-14.933334z m-202.666667-113.066666l34.133333-66.133334 29.866667 66.133334h-64zM450.133333 672h-98.133333V145.066667c0-14.933333-8.533333-27.733333-21.333333-27.733334h-42.666667c-12.8 0-21.333333 12.8-21.333333 27.733334v529.066666H166.4c-19.2 0-27.733333 21.333333-14.933333 36.266667l145.066666 172.8c4.266667 4.266667 12.8 4.266667 17.066667 0l151.466667-170.666667c14.933333-17.066667 4.266667-40.533333-14.933334-40.533333z" p-id="3856"></path></svg>