<?xml version="1.0" standalone="no"?><!DOCTYPE svg PUBLIC "-//W3C//DTD SVG 1.1//EN" "http://www.w3.org/Graphics/SVG/1.1/DTD/svg11.dtd"><svg t="1696210411944" class="icon" viewBox="0 0 1024 1024" version="1.1" xmlns="http://www.w3.org/2000/svg" p-id="3443" xmlns:xlink="http://www.w3.org/1999/xlink" width="128" height="128"><path d="M511.252 382.813V94.63h-509.747c72.773 90.202 133.813 186.826 182.053 288.183H511.252zM326.287 743.271c20.754 67.027 40.417 138.686 57.529 216.214H511.252V743.271H326.287zM511.252 455.089h-294.197c29.129 63.629 58.258 135.288 85.931 216.216H511.252V455.089z m0-72.276V94.63H1021c-72.773 90.202-133.813 186.826-182.056 288.183H511.252z m184.964 360.458c-20.749 67.027-40.412 138.686-57.525 216.214H511.252V743.271h184.964zM511.252 455.089h294.2c-29.13 63.629-58.262 135.288-85.93 216.216H511.252V455.089z" p-id="3444"></path></svg>