<?xml version="1.0" standalone="no"?><!DOCTYPE svg PUBLIC "-//W3C//DTD SVG 1.1//EN" "http://www.w3.org/Graphics/SVG/1.1/DTD/svg11.dtd"><svg t="1696303755632" class="icon" viewBox="0 0 1024 1024" version="1.1" xmlns="http://www.w3.org/2000/svg" p-id="8483" xmlns:xlink="http://www.w3.org/1999/xlink" width="500" height="500"><path d="M805.1 815.7h-579v-579h50.1v529.9h528.9v49.1z" p-id="8484"></path><path d="M769 698c-76.2 0-138.6-25.5-191-77.9-44.1-44.1-73.4-99.6-99.2-148.6C449 414.9 423.2 366 389 366c-36.8 0-63 65.4-84.2 118-12.6 31.3-24.4 60.8-38.8 80l-32-24c11.3-15 22.2-42.2 33.7-70.9 12.9-32 26.2-65.1 43.6-91.7 22.6-34.5 48-51.3 77.7-51.3 27.4 0 51.6 13.7 74.2 41.8 18.1 22.6 34.1 53 51 85.1 50.7 96 108.1 205 254.8 205v40z" p-id="8485"></path></svg>