<?xml version="1.0" standalone="no"?><!DOCTYPE svg PUBLIC "-//W3C//DTD SVG 1.1//EN" "http://www.w3.org/Graphics/SVG/1.1/DTD/svg11.dtd"><svg t="1695789962399" class="icon" viewBox="0 0 1024 1024" version="1.1" xmlns="http://www.w3.org/2000/svg" p-id="5619" xmlns:xlink="http://www.w3.org/1999/xlink" width="200" height="200"><path d="M853.333333 170.666667H170.666667a85.333333 85.333333 0 0 0-85.333334 85.333333v512a85.333333 85.333333 0 0 0 85.333334 85.333333h682.666666a85.333333 85.333333 0 0 0 85.333334-85.333333V256a85.333333 85.333333 0 0 0-85.333334-85.333333z m-170.666666 213.333333V256h170.666666v128zM416 384V256h192v128zM170.666667 384V256h170.666666v128z m512 181.333333v-106.666666h170.666666v106.666666z m-266.666667 0v-106.666666h192v106.666666z m-245.333333 0v-106.666666h170.666666v106.666666zM682.666667 768v-128h170.666666v128z m-266.666667 0v-128h192v128zM170.666667 768v-128h170.666666v128z" p-id="5620" fill="currentColor"></path></svg>