<?xml version="1.0" standalone="no"?><!DOCTYPE svg PUBLIC "-//W3C//DTD SVG 1.1//EN" "http://www.w3.org/Graphics/SVG/1.1/DTD/svg11.dtd"><svg t="1723435159995" class="icon" viewBox="0 0 1024 1024" version="1.1" xmlns="http://www.w3.org/2000/svg" p-id="5113" xmlns:xlink="http://www.w3.org/1999/xlink" width="28" height="28"><path d="M870.912 823.296l-40.96-90.112v-1.024l-103.424-235.008c-11.264-26.112-54.272-26.112-65.536 0l-57.344 130.048s-3.584-3.072-6.144-3.584c-1.024 0-91.136-35.328-164.864-81.92 69.632-77.824 103.424-195.072 112.128-229.888h39.936c19.968 0 35.84-15.872 35.84-35.84s-15.872-35.84-35.84-35.84h-163.84c0-4.096 0-7.68-1.536-11.776L401.408 174.08a35.84 35.84 0 0 0-45.568-22.528 35.84 35.84 0 0 0-22.528 45.568l14.336 43.52H185.344c-19.968 0-35.84 15.872-35.84 35.84s15.872 35.84 35.84 35.84h284.672c-12.288 43.008-42.496 131.072-95.232 186.368C317.44 441.856 292.352 358.4 292.352 357.376a36.096 36.096 0 0 0-44.544-24.576c-18.944 5.632-30.208 25.088-24.576 44.032 1.536 4.608 29.184 99.328 97.792 169.472-71.168 55.808-151.04 96.256-152.064 96.768-17.92 8.704-24.576 30.208-15.872 48.128 6.144 12.8 18.944 19.968 32.256 19.968 5.632 0 10.752-1.024 15.872-4.096 4.608-2.56 97.28-49.152 176.64-114.688 82.432 55.296 188.416 96.256 193.024 98.304 1.024 0 2.56 0 3.584 0.512l-18.432 41.472v1.024l-40.96 90.112c-8.192 17.92 0 39.424 17.92 47.616 17.92 8.192 39.424 0 47.616-17.92l31.744-69.632h161.28l31.744 69.632c6.144 13.312 18.944 20.992 32.768 20.992 5.12 0 10.24-1.024 14.848-3.072 17.92-8.192 26.112-29.696 17.92-47.616z m-226.304-111.616l48.64-111.104 48.64 111.104h-97.28z" p-id="5114"></path></svg>