<?xml version="1.0" standalone="no"?><!DOCTYPE svg PUBLIC "-//W3C//DTD SVG 1.1//EN" "http://www.w3.org/Graphics/SVG/1.1/DTD/svg11.dtd"><svg t="1715592394045" class="icon" viewBox="0 0 1024 1024" version="1.1" xmlns="http://www.w3.org/2000/svg" p-id="6038" xmlns:xlink="http://www.w3.org/1999/xlink" width="200" height="200"><path d="M593.792 952.746667C817.152 742.826667 930.133333 568.96 930.133333 426.666667c0-230.912-187.221333-418.133333-418.133333-418.133334C281.088 8.533333 93.866667 195.754667 93.866667 426.666667c0 142.293333 112.981333 316.16 336.341333 526.08a119.466667 119.466667 0 0 0 163.584 0z m-46.72-49.749334a51.2 51.2 0 0 1-70.144 0C266.24 704.981333 162.133333 544.768 162.133333 426.666667a349.866667 349.866667 0 1 1 699.733334 0c0 118.101333-104.106667 278.314667-314.794667 476.330666z" p-id="6039"></path><path d="M512 631.466667a204.8 204.8 0 1 0 0-409.6 204.8 204.8 0 0 0 0 409.6z m0-68.266667a136.533333 136.533333 0 1 1 0-273.066667 136.533333 136.533333 0 0 1 0 273.066667z" p-id="6040"></path></svg>