<?xml version="1.0" standalone="no"?><!DOCTYPE svg PUBLIC "-//W3C//DTD SVG 1.1//EN" "http://www.w3.org/Graphics/SVG/1.1/DTD/svg11.dtd"><svg t="1696210514129" class="icon" viewBox="0 0 1024 1024" version="1.1" xmlns="http://www.w3.org/2000/svg" p-id="4443" xmlns:xlink="http://www.w3.org/1999/xlink" width="128" height="128"><path d="M888.368 461.056H489.048l-8.904 16.936h388.952c37.464 0 67.848 25.288 67.848 56.472v13.232c0 31.176-30.392 56.472-67.848 56.472h-455.28l-8.904 16.928h483.456A71.632 71.632 0 0 0 960 549.472v-16.784a71.632 71.632 0 0 0-71.632-71.632zM281.784 604.168l-8.904 16.928h115.08l8.896-16.928zM463.192 477.992l8.904-16.936H357.016l-8.904 16.936zM155.664 621.096h100.264l8.896-16.928H174.952c-5.472 0-10.76-0.6-15.856-1.616l-9.584 18.232c2.032 0.168 4.08 0.312 6.152 0.312zM107.096 547.696v-13.232c0-31.184 30.376-56.472 67.856-56.472h32.672l8.904-16.936h-60.864a71.632 71.632 0 0 0-71.632 71.632v16.784c0 32.048 21.064 59.168 50.096 68.32l10.352-19.688c-22.152-9.296-37.384-28.352-37.384-50.408zM331.16 477.992l8.904-16.936H233.48l-8.904 16.936z" p-id="4444"></path><path d="M616.128 477.992H480.144L413.816 604.16h135.984zM173.896 477.992c-37.48 0-67.856 25.288-67.856 56.464v13.232c0 22.344 15.632 41.6 38.256 50.76l63.328-120.456h-33.728zM224.576 477.992l-65.584 124.76c4.8 0.888 9.776 1.408 14.904 1.408h90.936l66.336-126.168H224.576zM348.112 477.992L281.784 604.16h115.08l66.328-126.168z" p-id="4445"></path></svg>