<?xml version="1.0" standalone="no"?><!DOCTYPE svg PUBLIC "-//W3C//DTD SVG 1.1//EN" "http://www.w3.org/Graphics/SVG/1.1/DTD/svg11.dtd"><svg t="1710748241669" class="icon" viewBox="0 0 1024 1024" version="1.1" xmlns="http://www.w3.org/2000/svg" p-id="4296" width="32" height="32" xmlns:xlink="http://www.w3.org/1999/xlink"><path d="M906.000638 1023.99996a99.290887 99.290887 0 0 1-57.16748-18.052889L483.763632 746.186063l-55.161604 221.649355a40.11753 40.11753 0 0 1-39.114592 30.088147 40.11753 40.11753 0 0 1-39.114592-31.091086l-82.240937-352.031328a20.058765 20.058765 0 0 0-11.032321-14.041135L50.494306 504.477943l-5.014692-3.008815a100.293826 100.293826 0 0 1 18.052889-176.517133L886.944811 7.020568a100.293826 100.293826 0 0 1 136.399603 101.296764l-17.04995 821.406432v3.008815a99.290887 99.290887 0 0 1-58.170419 81.237998 100.293826 100.293826 0 0 1-42.123407 10.029383z m-11.03232-84.246814a20.058765 20.058765 0 0 0 31.091085-13.038197l17.049951-821.406432v-3.008815a20.058765 20.058765 0 0 0-27.079333-21.061703L92.617712 399.169426a20.058765 20.058765 0 0 0-6.017629 34.099901l203.596466 94.276196a99.290887 99.290887 0 0 1 55.161604 68.199801l45.132222 190.558269 29.085209-117.343776a40.11753 40.11753 0 0 1 62.182172-23.06758z" fill="" p-id="4297"></path><path d="M389.487436 997.923565a40.11753 40.11753 0 0 1-27.079333-69.202739l191.561207-176.517134a40.11753 40.11753 0 0 1 54.158666 59.173358L416.566769 986.891244a40.11753 40.11753 0 0 1-27.079333 11.032321zM462.701929 714.092039a40.11753 40.11753 0 0 1-31.091086-65.190987L917.032959 42.123407a40.11753 40.11753 0 1 1 62.182172 50.146913L493.793015 699.047965a40.11753 40.11753 0 0 1-31.091086 15.044074z" fill="" p-id="4298"></path></svg>