<?xml version="1.0" standalone="no"?><!DOCTYPE svg PUBLIC "-//W3C//DTD SVG 1.1//EN" "http://www.w3.org/Graphics/SVG/1.1/DTD/svg11.dtd"><svg t="1745563792982" class="icon" viewBox="0 0 1024 1024" version="1.1" xmlns="http://www.w3.org/2000/svg" p-id="3521" xmlns:xlink="http://www.w3.org/1999/xlink" width="28" height="28"><path d="M122.368 165.888h778.24c-9.216 0-16.384-7.168-16.384-16.384v713.728c0-9.216 7.168-16.384 16.384-16.384h-778.24c9.216 0 16.384 7.168 16.384 16.384V150.016c0 8.192-6.656 15.872-16.384 15.872z m-32.768 684.544c0 26.112 20.992 47.104 47.104 47.104h750.08c26.112 0 47.104-20.992 47.104-47.104V162.304c0-26.112-20.992-47.104-47.104-47.104H136.704c-26.112 0-47.104 20.992-47.104 47.104v688.128z" p-id="3522"></path><path d="M573.44 646.656l-3.072 6.144c-8.192 12.288-14.336 25.088-19.456 38.912-6.656 18.944-3.072 36.352 16.896 43.008 34.816 11.264 72.704 9.216 106.496-4.608 9.216-3.072 11.264-4.096 34.304-12.8 16.384-6.656 33.792-12.8 51.2-17.408 1.024 0 2.048-0.512 3.072-1.024 10.24-2.048 6.656-5.632 16.896 1.024 3.584 3.072 8.704 4.096 13.312 3.072 4.608-1.024 5.632-3.072 8.192-7.68 5.632-8.192 3.584-19.456-4.608-25.088-18.944-12.8-22.528-10.24-41.472-6.144-1.536 0.512-3.072 0.512-4.096 1.024-18.944 5.12-37.376 11.264-55.808 18.432-22.016 8.704-24.064 9.728-32.768 12.288-24.576 10.24-52.224 12.8-78.336 6.144 4.608-11.264 10.24-22.016 16.896-32.256 1.536-2.048 2.56-4.096 3.584-6.144 8.704-13.824 15.36-29.184 18.432-45.056 4.096-19.456-7.68-38.4-27.136-42.496-0.512 0-1.536-0.512-2.048-0.512-27.648-6.656-59.392 3.072-148.992 37.888-81.92 32.256-117.76 41.984-129.024 35.84-4.096-2.56-8.704-3.072-13.312-1.536-9.728 2.56-15.36 12.8-12.8 22.016 1.024 4.608 4.096 8.192 8.192 10.752 23.04 8.704 48.64 7.68 71.168-2.048 29.696-9.216 59.392-19.456 88.064-32.256 77.824-30.72 111.104-40.448 126.976-36.352 3.072 1.024 3.072 0 2.56 3.072-2.56 12.288-7.168 23.552-13.312 33.792zM665.088 235.52c-19.456-17.92-49.664-17.408-68.608 1.024L312.32 519.68c-2.048 2.048-3.584 4.608-4.608 7.68l-22.528 80.896c-2.56 9.728 3.072 19.456 12.8 21.504 3.584 1.024 7.68 0.512 11.264-0.512l71.168-29.696c5.632-2.56 10.752-5.632 15.36-10.24l283.648-269.824 2.56-2.56c18.432-19.456 17.92-50.176-2.048-68.608l-1.024-1.024-13.824-11.776z" p-id="3523"></path></svg>