<?xml version="1.0" standalone="no"?><!DOCTYPE svg PUBLIC "-//W3C//DTD SVG 1.1//EN" "http://www.w3.org/Graphics/SVG/1.1/DTD/svg11.dtd"><svg t="1692348988923" class="icon" viewBox="0 0 1024 1024" version="1.1" xmlns="http://www.w3.org/2000/svg" p-id="60848" xmlns:xlink="http://www.w3.org/1999/xlink" width="200" height="200"><path d="M863.9 97.5h-41.4c-13.5 0.1-25.2 9.9-28.3 23.7-5 20.9-22.5 35.8-43.3 35.8-20.8 0-38.3-14.9-43.3-35.8-2.5-14-15-23.7-28.3-23.7h-91.6c-13.5 0.1-25.2 9.9-28.3 23.7-5 20.9-22.5 35.8-43.3 35.8-20.8 0-38.3-14.9-43.3-35.8-2.5-14-15-23.7-28.3-23.7h-99.8c-13.6 0.2-25.2 9.9-28.3 23.7-5 20.9-22.5 35.8-43.3 35.8-20.8 0-38.3-14.9-43.3-35.8-2.4-14-14.9-23.7-28.3-23.7h-41.7c-52.4 0-95.6 45.6-95.6 100.7v625.9c0 55.1 43.3 100.7 95.6 100.7l530.9 1.8h179c49.4 0 89.5-39.1 89.5-87.2V630.8 198.2c0.4-55.2-42.9-100.7-95.3-100.7z m15.7 530.7v211c0 3.5-3.8 7.2-9.5 7.2H691.2l-530.8-1.8h-0.2c-7.2 0-15.6-9-15.6-20.7V198.2c0-11.7 8.4-20.7 15.6-20.7h7.7c22.3 36.3 61.6 59.5 105.5 59.5s83.2-23.2 105.5-59.5h32c22.3 36.3 61.6 59.5 105.5 59.5s83.2-23.2 105.5-59.5h23.7c22.3 36.3 61.6 59.5 105.5 59.5s83.2-23.2 105.5-59.5h7.5c7.2 0 15.7 9 15.7 20.7v430z" p-id="60849"></path><path d="M793.4 597.9H597.5c-17.5 0-32.5 15.7-32.5 34.5 0.1 18.9 14.5 34.2 32.5 34.6h195.9c18.6 0 32.6-15.9 32.4-34.5 0-18.8-14.8-34.6-32.4-34.6zM796 400.5H597.5c-17.5 0-32.5 15.7-32.5 34.4 0.1 18.9 14.5 34.3 32.5 34.6H796c18.6 0 32.4-15.8 32.4-34.5 0-18.8-14.8-34.5-32.4-34.5zM380.2 345.2v-23.5c0-20-17.4-36.3-38.8-36.3s-38.8 16.3-38.8 36.3v25c-50.7 13.3-87.5 51.9-92.7 98.2-3.1 27 5.2 54 23.2 76 21.4 26.2 56.1 44.5 100.5 53 41 7.8 64.8 27.1 62.2 50.3-2.2 19.1-21.6 38.4-54.4 38.4-41.6 0-63.1-18.3-68.8-33.9-6.8-18.7-28.7-28.9-48.7-22.7-10.2 3.1-18.6 10.1-23.1 19.1-4.3 8.5-4.8 18.2-1.5 27.1 11.5 31.3 44.5 67.7 103.3 79.2v23.5c0 20 17.4 36.2 38.8 36.2s38.8-16.3 38.8-36.2v-25c50.7-13.3 87.5-51.9 92.7-98.1 3.1-27-5.2-54-23.2-76.1-21.4-26.2-56.1-44.5-100.5-52.9-41-7.9-64.8-27.1-62.2-50.3 2.2-19.1 21.6-38.4 54.4-38.4 41.6 0 63.1 18.2 68.8 33.8 6.8 18.6 28.6 28.8 48.7 22.7 10.2-3.1 18.6-10.1 23.1-19.2 4.2-8.5 4.8-18.2 1.5-27.1-11.5-31.2-44.5-67.6-103.3-79.1z" p-id="60850"></path></svg>