<?xml version="1.0" standalone="no"?><!DOCTYPE svg PUBLIC "-//W3C//DTD SVG 1.1//EN" "http://www.w3.org/Graphics/SVG/1.1/DTD/svg11.dtd"><svg t="1696316440747" class="icon" viewBox="0 0 1024 1024" version="1.1" xmlns="http://www.w3.org/2000/svg" p-id="6131" id="mx_n_1696316440748" xmlns:xlink="http://www.w3.org/1999/xlink" width="128" height="128"><path d="M512 0c282.752 0 512 229.248 512 512s-229.248 512-512 512S0 794.752 0 512 229.248 0 512 0z m46.848 622.250667l-5.802667 3.925333-46.08 34.645333a147.370667 147.370667 0 0 1-191.616-12.501333l-6.058666-6.314667a73.301333 73.301333 0 0 0-86.101334-16.768l-6.101333 3.285334-94.848 57.301333A426.752 426.752 0 0 0 512 938.666667c176.810667 0 328.490667-107.52 393.216-260.778667l-21.546667 12.842667a171.093333 171.093333 0 0 1-221.952-40.96l-6.826666-9.130667a72.789333 72.789333 0 0 0-96.042667-18.389333zM512 85.333333C276.352 85.333333 85.333333 276.352 85.333333 512c0 31.061333 3.328 61.397333 9.642667 90.581333l77.994667-47.104a158.634667 158.634667 0 0 1 199.509333 29.226667c20.053333 22.144 52.864 26.581333 77.952 11.434667l5.248-3.541334 46.08-34.645333a158.08 158.08 0 0 1 221.397333 31.402667l2.816 3.882666a85.76 85.76 0 0 0 107.477334 27.733334l6.528-3.498667 88.021333-52.565333c2.56-1.493333 5.12-2.688 7.808-3.626667 1.92-16.128 2.858667-32.597333 2.858667-49.28 0-235.648-191.018667-426.666667-426.666667-426.666667z" fill="#191919" p-id="6132"></path></svg>